<?xml version="1.0" encoding="UTF-8" standalone="no"?>
<svg
   xmlns:dc="http://purl.org/dc/elements/1.1/"
   xmlns:cc="http://creativecommons.org/ns#"
   xmlns:rdf="http://www.w3.org/1999/02/22-rdf-syntax-ns#"
   xmlns:svg="http://www.w3.org/2000/svg"
   xmlns="http://www.w3.org/2000/svg"
   xmlns:sodipodi="http://sodipodi.sourceforge.net/DTD/sodipodi-0.dtd"
   xmlns:inkscape="http://www.inkscape.org/namespaces/inkscape"
   version="1.0"
   width="50.000000pt"
   height="51.000000pt"
   viewBox="0 0 50.000000 51.000000"
   preserveAspectRatio="xMidYMid meet"
   id="svg8"
   sodipodi:docname="AR.svg"
   inkscape:version="0.92.4 (5da689c313, 2019-01-14)">
  <defs
     id="defs12" />
  <sodipodi:namedview
     pagecolor="#ffffff"
     bordercolor="#666666"
     borderopacity="1"
     objecttolerance="10"
     gridtolerance="10"
     guidetolerance="10"
     inkscape:pageopacity="0"
     inkscape:pageshadow="2"
     inkscape:window-width="1920"
     inkscape:window-height="1043"
     id="namedview10"
     showgrid="false"
     inkscape:zoom="3.4705882"
     inkscape:cx="33.909605"
     inkscape:cy="34"
     inkscape:window-x="0"
     inkscape:window-y="0"
     inkscape:window-maximized="1"
     inkscape:current-layer="svg8" />
  <metadata
     id="metadata2">
Created by potrace 1.16, written by Peter Selinger 2001-2019
<rdf:RDF>
  <cc:Work
     rdf:about="">
    <dc:format>image/svg+xml</dc:format>
    <dc:type
       rdf:resource="http://purl.org/dc/dcmitype/StillImage" />
    <dc:title></dc:title>
  </cc:Work>
</rdf:RDF>
</metadata>
  <g
     transform="translate(0.000000,51.000000) scale(0.100000,-0.100000)"
     fill="#000000"
     stroke="none"
     id="g6">
    <path
       d="M174 477 c-46 -15 -110 -73 -133 -121 -27 -55 -30 -140 -6 -190 19 -41 83 -102 123 -118 39 -15 108 -17 150 -5 36 11 132 98 132 119 0 7 -16 -7 -35 -29 -51 -60 -113 -87 -177 -79 -84 12 -133 47 -163 118 -34 82 -3 186 68 234 60 40 146 41 206 1 45 -30 80 -91 81 -138 0 -31 23 -54 45 -45 18 7 19 66 2 114 -7 18 -32 53 -57 78 -64 65 -152 88 -236 61z"
       id="path4" />
  </g>
  <text
     xml:space="preserve"
     style="font-style:normal;font-weight:normal;font-size:30px;line-height:1.25;font-family:sans-serif;letter-spacing:0px;word-spacing:0px;fill:#000000;fill-opacity:1;stroke:none;stroke-width:0.75"
     x="11.669492"
     y="33.711861"
     id="text3719"><tspan
       sodipodi:role="line"
       id="tspan3717"
       x="11.669492"
       y="33.711861"
       style="font-style:normal;font-variant:normal;font-weight:normal;font-stretch:normal;font-size:20px;line-height:1;font-family:B612;-inkscape-font-specification:B612;stroke-width:0.75">AR</tspan></text>
</svg>
