<svg height="512" viewBox="0 0 512 512" width="512" xmlns="http://www.w3.org/2000/svg"><g id="Flat"><path d="m354.34 417.37a48.457 48.457 0 0 0 -15.05-16.85 47.993 47.993 0 0 0 -27.31-79.85c.01-.22.02-.44.02-.67a47.873 47.873 0 0 0 -2.73-16 45.907 45.907 0 0 0 -2.37-5.54 48.022 48.022 0 0 0 -65.49-20.82 56 56 0 0 0 -98.82 0 48.012 48.012 0 0 0 -70.59 42.36c0 .23.01.45.02.67a47.985 47.985 0 0 0 -27.31 79.85 47.944 47.944 0 0 0 -20.71 39.48 48.658 48.658 0 0 0 .49 6.88 48.017 48.017 0 0 0 47.51 41.12h240a48.014 48.014 0 0 0 42.34-70.63z" fill="#f7afaf"/><path d="m309.27 304h-77.27a32 32 0 0 1 -32-32v-23.43a56.03 56.03 0 0 1 41.41 29.07 48.032 48.032 0 0 1 67.86 26.36z" fill="#f1a9a9"/><path d="m360 440a48 48 0 0 1 -48 48h-240a48.017 48.017 0 0 1 -47.51-41.12c97.16-17.75 201.59-61.91 282.41-148.42a45.907 45.907 0 0 1 2.37 5.54 47.873 47.873 0 0 1 2.73 16c0 .23-.01.45-.02.67a47.985 47.985 0 0 1 27.31 79.85 48.457 48.457 0 0 1 15.05 16.85 47.8 47.8 0 0 1 5.66 22.63z" fill="#f1a9a9"/><path d="m286.539 417.054a28.856 28.856 0 0 1 0-50.108 8 8 0 1 0 -7.937-13.892 44.281 44.281 0 0 0 -21.886 30.946h-57.248a59.4 59.4 0 0 0 -32.512-45.466l-3.378-1.689a8 8 0 1 0 -7.156 14.31l3.379 1.69a43.479 43.479 0 0 1 23.567 31.822 56.011 56.011 0 0 0 -10.034 108.145 8 8 0 0 0 5.332-15.086 40.008 40.008 0 0 1 13.334-77.726h64.716a44.281 44.281 0 0 0 21.884 30.946 8 8 0 1 0 7.937-13.892z" fill="#ed9191"/><path d="m106.666 357.726a40.07 40.07 0 0 1 -26.666-37.726 8 8 0 0 0 -16 0 56.1 56.1 0 0 0 37.334 52.812 8 8 0 0 0 5.332-15.086z" fill="#ed9191"/><path d="m204.031 326.946a8 8 0 0 0 10.915-2.977 28.856 28.856 0 0 1 50.108 0 8 8 0 1 0 13.892-7.938 44.4 44.4 0 0 0 -23.432-19.875 63.908 63.908 0 0 0 -8.66-25.143 8 8 0 0 0 -13.708 8.254 47.8 47.8 0 0 1 5.687 14.2 44.334 44.334 0 0 0 -37.779 22.563 8 8 0 0 0 2.977 10.916z" fill="#ed9191"/><path d="m99.969 398.946a8 8 0 0 0 -7.938-13.892 44.856 44.856 0 0 0 0 77.892 8 8 0 0 0 7.938-13.892 28.856 28.856 0 0 1 0-50.108z" fill="#ed9191"/><path d="m229.806 426.343a47.367 47.367 0 0 0 -4.379 61.61 8 8 0 1 0 12.8-9.6 31.287 31.287 0 0 1 2.892-40.7 8 8 0 1 0 -11.314-11.314z" fill="#ed9191"/><path d="m141.657 325.657a43.951 43.951 0 0 0 10.267-45.657l-1.8-5.047a8 8 0 1 0 -15.068 5.383l1.8 5.046a27.877 27.877 0 0 1 -6.512 28.962 8 8 0 0 0 11.314 11.314z" fill="#ed9191"/><path d="m488 56v192a32 32 0 0 1 -32 32h-64l-88 56 8-56h-104a32 32 0 0 1 -32-32v-192a32 32 0 0 1 32-32h248a31.972 31.972 0 0 1 32 32z" fill="#348fd9"/><path d="m488 56v192a32 32 0 0 1 -32 32h-64l-88 56 8-56h-104a32 32 0 0 1 -32-32v-19.86c105.24-28.46 213.07-89.86 286.09-203.56a32.007 32.007 0 0 1 25.91 31.42z" fill="#3086cd"/><path d="m256 72h184v32h-184z" fill="#f35244"/><path d="m256 200h136v32h-136z" fill="#ffb531"/><path d="m256 136h96v32h-96z" fill="#fa6d00"/><g fill="#2a71ad"><path d="m248 48h16v208h-16z"/><path d="m200 64h32v16h-32z"/><path d="m200 96h32v16h-32z"/><path d="m200 128h32v16h-32z"/><path d="m200 160h32v16h-32z"/><path d="m200 192h32v16h-32z"/><path d="m200 224h32v16h-32z"/></g></g></svg>